Coordinates
version=1
nRows=12
nColumns=24
inDegrees=yes

Units are S.I. units (second, meters, Newtons, ...)
Angles are in degrees.

endheader
time	pelvis_tilt	pelvis_list	pelvis_rotation	pelvis_tx	pelvis_ty	pelvis_tz	hip_flexion_r	hip_adduction_r	hip_rotation_r	knee_angle_r	ankle_angle_r	subtalar_angle_r	mtp_angle_r	hip_flexion_l	hip_adduction_l	hip_rotation_l	knee_angle_l	ankle_angle_l	subtalar_angle_l	mtp_angle_l	lumbar_extension	lumbar_bending	lumbar_rotation
      5.74500000	     12.56845800	      2.76124926	     12.72505324	      1.49614624	      0.91668045	     -0.23627113	      7.25345933	     -4.69738876	     -8.15833003	     -0.00357430	     14.37895534	     -0.90582739	      0.00000000	    -29.12047273	      0.34260395	     15.39268678	    -12.48972251	     23.67826680	      4.33368824	      0.00000000	    -28.69337145	      2.47511556	    -15.40707453
      5.75000000	     12.71168731	      2.45218484	     12.88563339	      1.50344926	      0.91614260	     -0.23594308	      7.19589045	     -4.28210047	     -8.11699930	     -0.38200801	     14.25051647	     -1.15491393	      0.00000000	    -29.30630899	     -0.17329186	     15.03884006	    -13.25938647	     23.64796111	      5.02661804	      0.00000000	    -28.72732308	      2.88384431	    -15.34650998
      5.75500000	     12.86566267	      2.09612440	     13.04203313	      1.51081356	      0.91565354	     -0.23558335	      7.14393803	     -3.80867960	     -8.07016838	     -0.85840492	     14.13804781	     -1.41578045	      0.00000000	    -29.47296223	     -0.73876348	     14.63105120	    -14.07014330	     23.57883796	      5.76038821	      0.00000000	    -28.75456646	      3.33768147	    -15.25914279
      5.76000000	     13.09051049	      1.69551514	     13.15580427	      1.51825223	      0.91525985	     -0.23513903	      7.03089536	     -3.25645510	     -7.99811156	     -1.40622016	     14.03041433	     -1.71405429	      0.00000000	    -29.69203548	     -1.34866406	     14.10553545	    -14.91263598	     23.44485068	      6.51480153	      0.00000000	    -28.84259013	      3.83267490	    -15.13695077
      5.76500000	     13.21911563	      1.26420923	     13.32987848	      1.52570402	      0.91482638	     -0.23475842	      7.03880554	     -2.70425941	     -7.95996035	     -2.07444746	     13.94109814	     -1.96177624	      0.00000000	    -29.76407492	     -1.99235808	     13.67783017	    -15.81846168	     23.30056036	      7.31404812	      0.00000000	    -28.81292921	      4.35771649	    -15.01062766
      5.77000000	     13.39161871	      0.79309070	     13.45316601	      1.53325460	      0.91445827	     -0.23426708	      7.00421525	     -2.07964424	     -7.89734304	     -2.77717233	     13.84818315	     -2.26891420	      0.00000000	    -29.85531275	     -2.66907815	     13.10396793	    -16.77198317	     23.07924592	      8.15273827	      0.00000000	    -28.81027538	      4.90672487	    -14.86215917
      5.77500000	     13.64512979	      0.28021882	     13.52149232	      1.54082345	      0.91418262	     -0.23369910	      6.90891567	     -1.38041961	     -7.72438987	     -3.55421857	     13.71576290	     -2.62574114	      0.00000000	    -30.02017897	     -3.37961070	     12.47368979	    -17.73304754	     22.80604973	      9.00077704	      0.00000000	    -28.89666335	      5.49812901	    -14.64675192
      5.78000000	     13.73968354	     -0.22973369	     13.69863956	      1.54843343	      0.91382247	     -0.23320938	      6.96849587	     -0.73275019	     -7.73704932	     -4.38721516	     13.65368888	     -2.85656763	      0.00000000	    -29.94434844	     -4.10725049	     11.95078354	    -18.81204202	     22.49239396	      9.88926047	      0.00000000	    -28.78624994	      6.07954907	    -14.50895415
      5.78500000	     13.85396791	     -0.76959696	     13.83264457	      1.55602481	      0.91349632	     -0.23266131	      7.01681669	     -0.03931255	     -7.68321550	     -5.24703042	     13.54488338	     -3.11557095	      0.00000000	    -29.84643964	     -4.84582882	     11.37786954	    -19.96378048	     22.14709294	     10.78859460	      0.00000000	    -28.70127057	      6.68664885	    -14.35494416
      5.79000000	     13.99180857	     -1.34066698	     13.93359018	      1.56379736	      0.91322016	     -0.23199526	      7.03933886	      0.71345693	     -7.58407810	     -6.13674717	     13.45915907	     -3.48420528	      0.00000000	    -29.77633585	     -5.62335439	     10.71526263	    -21.09443820	     21.67116248	     11.69842072	      0.00000000	    -28.60866355	      7.29066426	    -14.15909949
      5.79500000	     14.10472339	     -1.89346933	     14.05783253	      1.57141853	      0.91297310	     -0.23136213	      7.08090403	      1.43405713	     -7.50429268	     -7.03610312	     13.33098656	     -3.73301105	      0.00000000	    -29.60368373	     -6.38190633	     10.12342612	    -22.34961923	     21.16763283	     12.59591732	      0.00000000	    -28.51871990	      7.89232130	    -13.98698446
      5.80000000	     14.20662282	     -2.47971416	     14.16577297	      1.57915375	      0.91273442	     -0.23065740	      7.12914354	      2.20187971	     -7.42508726	     -7.93830543	     13.22612707	     -4.04619597	      0.00000000	    -29.39531008	     -7.17288382	      9.50343950	    -23.63155252	     20.58282217	     13.49565615	      0.00000000	    -28.39069060	      8.51125383	    -13.81617046
